<?xml version="1.0" encoding="UTF-8" standalone="no"?>
<!DOCTYPE svg PUBLIC "-//W3C//DTD SVG 1.1//EN" "http://www.w3.org/Graphics/SVG/1.1/DTD/svg11.dtd">
<svg xmlns="http://www.w3.org/2000/svg" version="1.1" viewBox="0 0 500 173">
<g stroke-width="2.00" fill="none" stroke-linecap="butt">
<path stroke="#ffc79e" vector-effect="non-scaling-stroke" d="
  M 438.44 90.00
  A 38.93 38.93 0.0 0 0 399.51 51.07
  A 38.93 38.93 0.0 0 0 360.58 90.00
  A 38.93 38.93 0.0 0 0 399.51 128.93
  A 38.93 38.93 0.0 0 0 438.44 90.00"
/>
<path stroke="#ffc79e" vector-effect="non-scaling-stroke" d="
  M 36.24 106.59
  Q 30.59 106.09 25.55 103.59
  A 1.00 1.00 0.0 0 0 24.11 104.38
  L 23.68 108.42
  A 1.00 1.00 0.0 0 0 24.30 109.45
  C 31.70 112.47 45.35 113.93 51.20 107.02
  C 54.35 103.31 54.50 97.65 51.43 93.60
  C 48.21 89.37 41.84 87.26 35.38 85.34
  C 26.78 82.78 29.08 73.47 37.00 73.26
  Q 43.79 73.08 50.28 76.27
  A 1.00 1.00 0.0 0 0 51.72 75.46
  L 52.04 71.78
  A 1.01 1.01 0.0 0 0 51.44 70.77
  Q 42.85 67.03 33.58 68.68
  C 22.83 70.59 19.88 83.56 29.60 89.14
  C 33.39 91.32 42.26 92.29 46.98 97.77
  A 1.02 1.01 21.0 0 1 47.22 98.30
  Q 48.11 105.74 40.88 106.60
  Q 38.91 106.83 36.24 106.59"
/>
<path stroke="#ffc79e" vector-effect="non-scaling-stroke" d="
  M 68.40 80.11
  A 0.31 0.31 0.0 0 1 68.98 80.00
  L 79.91 100.55
  A 0.31 0.31 0.0 0 0 80.46 100.55
  L 91.29 79.94
  A 0.31 0.31 0.0 0 1 91.87 80.04
  L 95.73 110.99
  A 0.31 0.31 0.0 0 0 96.03 111.26
  L 101.37 111.25
  A 0.31 0.31 0.0 0 0 101.67 110.90
  L 96.14 69.02
  A 0.31 0.31 0.0 0 0 95.83 68.75
  L 91.47 68.75
  A 0.31 0.31 0.0 0 0 91.19 68.92
  L 80.45 89.37
  A 0.31 0.31 0.0 0 1 79.90 89.37
  L 69.07 68.91
  A 0.31 0.31 0.0 0 0 68.79 68.75
  L 64.47 68.74
  A 0.31 0.31 0.0 0 0 64.16 69.01
  L 58.54 110.83
  A 0.31 0.31 0.0 0 0 58.84 111.18
  L 64.16 111.30
  A 0.31 0.31 0.0 0 0 64.48 111.03
  L 68.40 80.11"
/>
<path stroke="#ffc79e" vector-effect="non-scaling-stroke" d="
  M 115.11 99.94
  A 0.31 0.31 0.0 0 1 115.40 99.74
  L 131.19 99.76
  A 0.31 0.31 0.0 0 1 131.48 99.97
  L 135.26 110.88
  A 0.31 0.31 0.0 0 0 135.54 111.09
  L 141.04 111.31
  A 0.31 0.31 0.0 0 0 141.34 110.90
  L 126.30 68.96
  A 0.31 0.31 0.0 0 0 126.01 68.75
  L 120.55 68.75
  A 0.31 0.31 0.0 0 0 120.26 68.96
  L 105.22 110.84
  A 0.31 0.31 0.0 0 0 105.51 111.26
  L 110.78 111.25
  A 0.31 0.31 0.0 0 0 111.07 111.05
  L 115.11 99.94"
/>
<path stroke="#ffc79e" vector-effect="non-scaling-stroke" d="
  M 153.75 94.75
  L 161.16 94.75
  A 1.00 1.00 0.0 0 1 162.05 95.29
  L 169.89 110.70
  A 1.01 0.99 76.3 0 0 170.78 111.25
  L 175.57 111.25
  A 1.00 0.99 -14.2 0 0 176.45 109.78
  L 168.21 94.57
  A 1.00 1.00 0.0 0 1 168.53 93.26
  Q 175.70 88.45 174.99 80.29
  C 174.58 75.50 171.45 70.79 166.73 69.71
  Q 159.30 68.00 147.68 68.87
  A 1.01 1.00 -2.2 0 0 146.75 69.87
  L 146.75 110.25
  A 1.00 1.00 0.0 0 0 147.75 111.25
  L 151.75 111.25
  A 1.00 1.00 0.0 0 0 152.75 110.25
  L 152.75 95.75
  A 1.00 1.00 0.0 0 1 153.75 94.75"
/>
<path stroke="#ffc79e" vector-effect="non-scaling-stroke" d="
  M 191.00 74.00
  A 0.50 0.50 0.0 0 1 191.50 74.50
  L 191.50 110.65
  A 0.50 0.50 0.0 0 0 191.98 111.15
  L 196.73 111.29
  A 0.50 0.50 0.0 0 0 197.25 110.79
  L 197.25 74.50
  A 0.50 0.50 0.0 0 1 197.75 74.00
  L 209.25 74.00
  A 0.50 0.50 0.0 0 0 209.75 73.50
  L 209.75 69.25
  A 0.50 0.50 0.0 0 0 209.25 68.75
  L 179.75 68.75
  A 0.50 0.50 0.0 0 0 179.25 69.25
  L 179.25 73.50
  A 0.50 0.50 0.0 0 0 179.75 74.00
  L 191.00 74.00"
/>
<path stroke="#f4d0a5" vector-effect="non-scaling-stroke" d="
  M 255.56 72.19
  C 249.99 68.87 245.38 68.82 237.98 68.73
  Q 233.52 68.68 228.96 68.86
  A 1.00 1.00 0.0 0 0 228.00 69.86
  L 228.00 110.13
  A 1.00 1.00 0.0 0 0 228.94 111.13
  Q 236.26 111.58 243.54 111.05
  Q 250.38 110.55 254.16 108.70
  C 267.33 102.28 268.51 79.89 255.56 72.19"
/>
<path stroke="#f4d0a5" vector-effect="non-scaling-stroke" d="
  M 283.30 68.75
  A 0.61 0.61 0.0 0 0 282.72 69.15
  L 267.93 110.43
  A 0.61 0.61 0.0 0 0 268.51 111.25
  L 273.25 111.25
  A 0.61 0.61 0.0 0 0 273.83 110.84
  L 277.43 100.16
  A 0.61 0.61 0.0 0 1 278.01 99.75
  L 293.62 99.75
  A 0.61 0.61 0.0 0 1 294.20 100.16
  L 297.85 110.84
  A 0.61 0.61 0.0 0 0 298.43 111.25
  L 303.13 111.25
  A 0.61 0.61 0.0 0 0 303.71 110.43
  L 288.95 69.16
  A 0.61 0.61 0.0 0 0 288.38 68.76
  L 283.30 68.75"
/>
<path stroke="#f4d0a5" vector-effect="non-scaling-stroke" d="
  M 320.71 85.88
  L 310.46 69.22
  A 1.00 0.99 -15.6 0 0 309.61 68.75
  L 305.56 68.75
  Q 303.76 68.75 304.71 70.28
  L 318.60 92.63
  A 1.07 0.99 31.4 0 1 318.75 93.16
  L 318.75 110.25
  A 1.00 1.00 0.0 0 0 319.75 111.25
  L 323.50 111.25
  A 1.00 1.00 0.0 0 0 324.50 110.25
  L 324.50 92.98
  A 1.02 0.97 62.1 0 1 324.65 92.45
  L 338.40 70.30
  A 1.00 1.00 0.0 0 0 337.74 68.79
  Q 335.76 68.42 334.09 68.91
  Q 332.40 69.40 331.00 71.73
  Q 326.73 78.86 322.41 85.88
  A 1.00 1.00 0.0 0 1 320.71 85.88"
/>
<path stroke="#ffc79e" vector-effect="non-scaling-stroke" d="
  M 434.47 90.01
  A 34.95 34.95 0.0 0 0 399.52 55.06
  A 34.95 34.95 0.0 0 0 364.57 90.01
  A 34.95 34.95 0.0 0 0 399.52 124.96
  A 34.95 34.95 0.0 0 0 434.47 90.01"
/>
<path stroke="#ffc79e" vector-effect="non-scaling-stroke" d="
  M 384.39 80.38
  L 387.22 81.88
  A 1.00 0.98 43.4 0 0 388.20 81.86
  C 390.26 80.62 397.86 76.82 398.58 74.86
  Q 399.03 73.63 398.62 71.97
  A 1.01 1.00 -21.8 0 0 397.15 71.34
  L 384.36 78.63
  Q 382.78 79.53 384.39 80.38"
/>
<path stroke="#ffc79e" vector-effect="non-scaling-stroke" d="
  M 414.70 78.63
  Q 408.10 74.98 402.01 71.31
  C 400.92 70.65 399.84 71.00 400.26 72.50
  Q 400.33 72.75 400.28 73.00
  C 399.90 74.64 400.26 75.71 401.77 76.57
  Q 406.43 79.21 411.14 81.90
  A 1.02 1.01 44.5 0 0 412.15 81.90
  L 414.73 80.36
  Q 416.23 79.47 414.70 78.63"
/>
<path stroke="#ffc79e" vector-effect="non-scaling-stroke" d="
  M 410.27 96.73
  A 0.97 0.97 0.0 0 0 410.75 95.90
  L 410.75 84.09
  A 0.97 0.97 0.0 0 0 410.27 83.26
  L 400.14 77.28
  A 0.97 0.97 0.0 0 0 399.17 77.27
  L 388.74 83.22
  A 0.97 0.97 0.0 0 0 388.25 84.06
  L 388.25 95.92
  A 0.97 0.97 0.0 0 0 388.73 96.76
  L 399.04 102.76
  A 0.97 0.97 0.0 0 0 400.02 102.76
  L 410.27 96.73"
/>
<path stroke="#ffc79e" vector-effect="non-scaling-stroke" d="
  M 382.99 81.34
  A 0.51 0.51 0.0 0 0 382.23 81.79
  L 382.47 97.99
  A 0.51 0.51 0.0 0 0 383.22 98.43
  L 386.49 96.64
  A 0.51 0.51 0.0 0 0 386.75 96.19
  L 386.75 83.72
  A 0.51 0.51 0.0 0 0 386.49 83.27
  L 382.99 81.34"
/>
<path stroke="#ffc79e" vector-effect="non-scaling-stroke" d="
  M 412.25 96.12
  A 0.59 0.59 0.0 0 0 412.54 96.63
  L 416.11 98.71
  A 0.59 0.59 0.0 0 0 417.00 98.20
  L 417.00 81.94
  A 0.59 0.59 0.0 0 0 416.14 81.41
  L 412.57 83.23
  A 0.59 0.59 0.0 0 0 412.25 83.75
  L 412.25 96.12"
/>
<path stroke="#ffc79e" vector-effect="non-scaling-stroke" d="
  M 415.35 101.01
  A 0.57 0.57 0.0 0 0 415.35 100.02
  L 411.70 98.02
  A 0.57 0.57 0.0 0 0 411.14 98.02
  L 400.53 104.24
  A 0.57 0.57 0.0 0 0 400.25 104.73
  L 400.24 108.60
  A 0.57 0.57 0.0 0 0 401.09 109.10
  L 415.35 101.01"
/>
<path stroke="#ffc79e" vector-effect="non-scaling-stroke" d="
  M 397.58 103.65
  Q 392.89 100.85 388.04 98.25
  A 1.02 1.01 45.3 0 0 387.12 98.24
  L 384.48 99.56
  Q 382.85 100.38 384.42 101.32
  Q 395.05 107.65 397.23 108.79
  Q 399.32 109.89 398.71 107.50
  A 1.01 0.93 -46.4 0 1 398.72 106.97
  Q 399.39 104.73 397.58 103.65"
/>
<path stroke="#ffc79e" vector-effect="non-scaling-stroke" d="
  M 117.21 94.03
  A 0.34 0.34 0.0 0 0 117.53 94.48
  L 128.93 94.52
  A 0.34 0.34 0.0 0 0 129.25 94.07
  L 123.61 77.75
  A 0.34 0.34 0.0 0 0 122.97 77.75
  L 117.21 94.03"
/>
<path stroke="#ffc79e" vector-effect="non-scaling-stroke" d="
  M 166.41 75.67
  Q 159.98 73.13 153.59 74.16
  A 1.00 0.99 85.7 0 0 152.75 75.15
  L 152.75 88.49
  A 1.01 1.00 2.2 0 0 153.68 89.49
  Q 161.31 90.04 164.50 88.77
  C 169.84 86.64 169.97 79.86 166.81 75.97
  Q 166.65 75.77 166.41 75.67"
/>
<path stroke="#f4d0a5" vector-effect="non-scaling-stroke" d="
  M 247.70 105.42
  C 262.17 102.02 262.23 77.03 247.45 74.67
  Q 241.21 73.67 234.68 74.10
  A 1.00 0.99 88.2 0 0 233.75 75.10
  L 233.75 104.91
  A 0.99 0.99 0.0 0 0 234.68 105.90
  Q 243.01 106.52 247.70 105.42"
/>
<path stroke="#f4d0a5" vector-effect="non-scaling-stroke" d="
  M 284.88 79.67
  L 280.09 93.16
  A 1.01 1.01 0.0 0 0 281.04 94.50
  L 290.65 94.50
  A 1.00 1.00 0.0 0 0 291.59 93.16
  L 286.77 79.67
  Q 285.82 77.03 284.88 79.67"
/>
</g>
<path fill="#ffffff" d="
  M 0.00 0.00
  L 500.00 0.00
  L 500.00 173.00
  L 0.00 173.00
  L 0.00 0.00
  Z
  M 438.44 90.00
  A 38.93 38.93 0.0 0 0 399.51 51.07
  A 38.93 38.93 0.0 0 0 360.58 90.00
  A 38.93 38.93 0.0 0 0 399.51 128.93
  A 38.93 38.93 0.0 0 0 438.44 90.00
  Z
  M 36.24 106.59
  Q 30.59 106.09 25.55 103.59
  A 1.00 1.00 0.0 0 0 24.11 104.38
  L 23.68 108.42
  A 1.00 1.00 0.0 0 0 24.30 109.45
  C 31.70 112.47 45.35 113.93 51.20 107.02
  C 54.35 103.31 54.50 97.65 51.43 93.60
  C 48.21 89.37 41.84 87.26 35.38 85.34
  C 26.78 82.78 29.08 73.47 37.00 73.26
  Q 43.79 73.08 50.28 76.27
  A 1.00 1.00 0.0 0 0 51.72 75.46
  L 52.04 71.78
  A 1.01 1.01 0.0 0 0 51.44 70.77
  Q 42.85 67.03 33.58 68.68
  C 22.83 70.59 19.88 83.56 29.60 89.14
  C 33.39 91.32 42.26 92.29 46.98 97.77
  A 1.02 1.01 21.0 0 1 47.22 98.30
  Q 48.11 105.74 40.88 106.60
  Q 38.91 106.83 36.24 106.59
  Z
  M 68.40 80.11
  A 0.31 0.31 0.0 0 1 68.98 80.00
  L 79.91 100.55
  A 0.31 0.31 0.0 0 0 80.46 100.55
  L 91.29 79.94
  A 0.31 0.31 0.0 0 1 91.87 80.04
  L 95.73 110.99
  A 0.31 0.31 0.0 0 0 96.03 111.26
  L 101.37 111.25
  A 0.31 0.31 0.0 0 0 101.67 110.90
  L 96.14 69.02
  A 0.31 0.31 0.0 0 0 95.83 68.75
  L 91.47 68.75
  A 0.31 0.31 0.0 0 0 91.19 68.92
  L 80.45 89.37
  A 0.31 0.31 0.0 0 1 79.90 89.37
  L 69.07 68.91
  A 0.31 0.31 0.0 0 0 68.79 68.75
  L 64.47 68.74
  A 0.31 0.31 0.0 0 0 64.16 69.01
  L 58.54 110.83
  A 0.31 0.31 0.0 0 0 58.84 111.18
  L 64.16 111.30
  A 0.31 0.31 0.0 0 0 64.48 111.03
  L 68.40 80.11
  Z
  M 115.11 99.94
  A 0.31 0.31 0.0 0 1 115.40 99.74
  L 131.19 99.76
  A 0.31 0.31 0.0 0 1 131.48 99.97
  L 135.26 110.88
  A 0.31 0.31 0.0 0 0 135.54 111.09
  L 141.04 111.31
  A 0.31 0.31 0.0 0 0 141.34 110.90
  L 126.30 68.96
  A 0.31 0.31 0.0 0 0 126.01 68.75
  L 120.55 68.75
  A 0.31 0.31 0.0 0 0 120.26 68.96
  L 105.22 110.84
  A 0.31 0.31 0.0 0 0 105.51 111.26
  L 110.78 111.25
  A 0.31 0.31 0.0 0 0 111.07 111.05
  L 115.11 99.94
  Z
  M 153.75 94.75
  L 161.16 94.75
  A 1.00 1.00 0.0 0 1 162.05 95.29
  L 169.89 110.70
  A 1.01 0.99 76.3 0 0 170.78 111.25
  L 175.57 111.25
  A 1.00 0.99 -14.2 0 0 176.45 109.78
  L 168.21 94.57
  A 1.00 1.00 0.0 0 1 168.53 93.26
  Q 175.70 88.45 174.99 80.29
  C 174.58 75.50 171.45 70.79 166.73 69.71
  Q 159.30 68.00 147.68 68.87
  A 1.01 1.00 -2.2 0 0 146.75 69.87
  L 146.75 110.25
  A 1.00 1.00 0.0 0 0 147.75 111.25
  L 151.75 111.25
  A 1.00 1.00 0.0 0 0 152.75 110.25
  L 152.75 95.75
  A 1.00 1.00 0.0 0 1 153.75 94.75
  Z
  M 191.00 74.00
  A 0.50 0.50 0.0 0 1 191.50 74.50
  L 191.50 110.65
  A 0.50 0.50 0.0 0 0 191.98 111.15
  L 196.73 111.29
  A 0.50 0.50 0.0 0 0 197.25 110.79
  L 197.25 74.50
  A 0.50 0.50 0.0 0 1 197.75 74.00
  L 209.25 74.00
  A 0.50 0.50 0.0 0 0 209.75 73.50
  L 209.75 69.25
  A 0.50 0.50 0.0 0 0 209.25 68.75
  L 179.75 68.75
  A 0.50 0.50 0.0 0 0 179.25 69.25
  L 179.25 73.50
  A 0.50 0.50 0.0 0 0 179.75 74.00
  L 191.00 74.00
  Z
  M 255.56 72.19
  C 249.99 68.87 245.38 68.82 237.98 68.73
  Q 233.52 68.68 228.96 68.86
  A 1.00 1.00 0.0 0 0 228.00 69.86
  L 228.00 110.13
  A 1.00 1.00 0.0 0 0 228.94 111.13
  Q 236.26 111.58 243.54 111.05
  Q 250.38 110.55 254.16 108.70
  C 267.33 102.28 268.51 79.89 255.56 72.19
  Z
  M 283.30 68.75
  A 0.61 0.61 0.0 0 0 282.72 69.15
  L 267.93 110.43
  A 0.61 0.61 0.0 0 0 268.51 111.25
  L 273.25 111.25
  A 0.61 0.61 0.0 0 0 273.83 110.84
  L 277.43 100.16
  A 0.61 0.61 0.0 0 1 278.01 99.75
  L 293.62 99.75
  A 0.61 0.61 0.0 0 1 294.20 100.16
  L 297.85 110.84
  A 0.61 0.61 0.0 0 0 298.43 111.25
  L 303.13 111.25
  A 0.61 0.61 0.0 0 0 303.71 110.43
  L 288.95 69.16
  A 0.61 0.61 0.0 0 0 288.38 68.76
  L 283.30 68.75
  Z
  M 320.71 85.88
  L 310.46 69.22
  A 1.00 0.99 -15.6 0 0 309.61 68.75
  L 305.56 68.75
  Q 303.76 68.75 304.71 70.28
  L 318.60 92.63
  A 1.07 0.99 31.4 0 1 318.75 93.16
  L 318.75 110.25
  A 1.00 1.00 0.0 0 0 319.75 111.25
  L 323.50 111.25
  A 1.00 1.00 0.0 0 0 324.50 110.25
  L 324.50 92.98
  A 1.02 0.97 62.1 0 1 324.65 92.45
  L 338.40 70.30
  A 1.00 1.00 0.0 0 0 337.74 68.79
  Q 335.76 68.42 334.09 68.91
  Q 332.40 69.40 331.00 71.73
  Q 326.73 78.86 322.41 85.88
  A 1.00 1.00 0.0 0 1 320.71 85.88
  Z"
/>
<path fill="#fe8e3c" d="
  M 438.44 90.00
  A 38.93 38.93 0.0 0 1 399.51 128.93
  A 38.93 38.93 0.0 0 1 360.58 90.00
  A 38.93 38.93 0.0 0 1 399.51 51.07
  A 38.93 38.93 0.0 0 1 438.44 90.00
  Z
  M 434.47 90.01
  A 34.95 34.95 0.0 0 0 399.52 55.06
  A 34.95 34.95 0.0 0 0 364.57 90.01
  A 34.95 34.95 0.0 0 0 399.52 124.96
  A 34.95 34.95 0.0 0 0 434.47 90.01
  Z"
/>
<path fill="#ffffff" d="
  M 434.47 90.01
  A 34.95 34.95 0.0 0 1 399.52 124.96
  A 34.95 34.95 0.0 0 1 364.57 90.01
  A 34.95 34.95 0.0 0 1 399.52 55.06
  A 34.95 34.95 0.0 0 1 434.47 90.01
  Z
  M 384.39 80.38
  L 387.22 81.88
  A 1.00 0.98 43.4 0 0 388.20 81.86
  C 390.26 80.62 397.86 76.82 398.58 74.86
  Q 399.03 73.63 398.62 71.97
  A 1.01 1.00 -21.8 0 0 397.15 71.34
  L 384.36 78.63
  Q 382.78 79.53 384.39 80.38
  Z
  M 414.70 78.63
  Q 408.10 74.98 402.01 71.31
  C 400.92 70.65 399.84 71.00 400.26 72.50
  Q 400.33 72.75 400.28 73.00
  C 399.90 74.64 400.26 75.71 401.77 76.57
  Q 406.43 79.21 411.14 81.90
  A 1.02 1.01 44.5 0 0 412.15 81.90
  L 414.73 80.36
  Q 416.23 79.47 414.70 78.63
  Z
  M 410.27 96.73
  A 0.97 0.97 0.0 0 0 410.75 95.90
  L 410.75 84.09
  A 0.97 0.97 0.0 0 0 410.27 83.26
  L 400.14 77.28
  A 0.97 0.97 0.0 0 0 399.17 77.27
  L 388.74 83.22
  A 0.97 0.97 0.0 0 0 388.25 84.06
  L 388.25 95.92
  A 0.97 0.97 0.0 0 0 388.73 96.76
  L 399.04 102.76
  A 0.97 0.97 0.0 0 0 400.02 102.76
  L 410.27 96.73
  Z
  M 382.99 81.34
  A 0.51 0.51 0.0 0 0 382.23 81.79
  L 382.47 97.99
  A 0.51 0.51 0.0 0 0 383.22 98.43
  L 386.49 96.64
  A 0.51 0.51 0.0 0 0 386.75 96.19
  L 386.75 83.72
  A 0.51 0.51 0.0 0 0 386.49 83.27
  L 382.99 81.34
  Z
  M 412.25 96.12
  A 0.59 0.59 0.0 0 0 412.54 96.63
  L 416.11 98.71
  A 0.59 0.59 0.0 0 0 417.00 98.20
  L 417.00 81.94
  A 0.59 0.59 0.0 0 0 416.14 81.41
  L 412.57 83.23
  A 0.59 0.59 0.0 0 0 412.25 83.75
  L 412.25 96.12
  Z
  M 415.35 101.01
  A 0.57 0.57 0.0 0 0 415.35 100.02
  L 411.70 98.02
  A 0.57 0.57 0.0 0 0 411.14 98.02
  L 400.53 104.24
  A 0.57 0.57 0.0 0 0 400.25 104.73
  L 400.24 108.60
  A 0.57 0.57 0.0 0 0 401.09 109.10
  L 415.35 101.01
  Z
  M 397.58 103.65
  Q 392.89 100.85 388.04 98.25
  A 1.02 1.01 45.3 0 0 387.12 98.24
  L 384.48 99.56
  Q 382.85 100.38 384.42 101.32
  Q 395.05 107.65 397.23 108.79
  Q 399.32 109.89 398.71 107.50
  A 1.01 0.93 -46.4 0 1 398.72 106.97
  Q 399.39 104.73 397.58 103.65
  Z"
/>
<path fill="#fe8e3c" d="
  M 36.24 106.59
  Q 38.91 106.83 40.88 106.60
  Q 48.11 105.74 47.22 98.30
  A 1.02 1.01 21.0 0 0 46.98 97.77
  C 42.26 92.29 33.39 91.32 29.60 89.14
  C 19.88 83.56 22.83 70.59 33.58 68.68
  Q 42.85 67.03 51.44 70.77
  A 1.01 1.01 0.0 0 1 52.04 71.78
  L 51.72 75.46
  A 1.00 1.00 0.0 0 1 50.28 76.27
  Q 43.79 73.08 37.00 73.26
  C 29.08 73.47 26.78 82.78 35.38 85.34
  C 41.84 87.26 48.21 89.37 51.43 93.60
  C 54.50 97.65 54.35 103.31 51.20 107.02
  C 45.35 113.93 31.70 112.47 24.30 109.45
  A 1.00 1.00 0.0 0 1 23.68 108.42
  L 24.11 104.38
  A 1.00 1.00 0.0 0 1 25.55 103.59
  Q 30.59 106.09 36.24 106.59
  Z"
/>
<path fill="#fe8e3c" d="
  M 68.40 80.11
  L 64.48 111.03
  A 0.31 0.31 0.0 0 1 64.16 111.30
  L 58.84 111.18
  A 0.31 0.31 0.0 0 1 58.54 110.83
  L 64.16 69.01
  A 0.31 0.31 0.0 0 1 64.47 68.74
  L 68.79 68.75
  A 0.31 0.31 0.0 0 1 69.07 68.91
  L 79.90 89.37
  A 0.31 0.31 0.0 0 0 80.45 89.37
  L 91.19 68.92
  A 0.31 0.31 0.0 0 1 91.47 68.75
  L 95.83 68.75
  A 0.31 0.31 0.0 0 1 96.14 69.02
  L 101.67 110.90
  A 0.31 0.31 0.0 0 1 101.37 111.25
  L 96.03 111.26
  A 0.31 0.31 0.0 0 1 95.73 110.99
  L 91.87 80.04
  A 0.31 0.31 0.0 0 0 91.29 79.94
  L 80.46 100.55
  A 0.31 0.31 0.0 0 1 79.91 100.55
  L 68.98 80.00
  A 0.31 0.31 0.0 0 0 68.40 80.11
  Z"
/>
<path fill="#fe8e3c" d="
  M 115.11 99.94
  L 111.07 111.05
  A 0.31 0.31 0.0 0 1 110.78 111.25
  L 105.51 111.26
  A 0.31 0.31 0.0 0 1 105.22 110.84
  L 120.26 68.96
  A 0.31 0.31 0.0 0 1 120.55 68.75
  L 126.01 68.75
  A 0.31 0.31 0.0 0 1 126.30 68.96
  L 141.34 110.90
  A 0.31 0.31 0.0 0 1 141.04 111.31
  L 135.54 111.09
  A 0.31 0.31 0.0 0 1 135.26 110.88
  L 131.48 99.97
  A 0.31 0.31 0.0 0 0 131.19 99.76
  L 115.40 99.74
  A 0.31 0.31 0.0 0 0 115.11 99.94
  Z
  M 117.21 94.03
  A 0.34 0.34 0.0 0 0 117.53 94.48
  L 128.93 94.52
  A 0.34 0.34 0.0 0 0 129.25 94.07
  L 123.61 77.75
  A 0.34 0.34 0.0 0 0 122.97 77.75
  L 117.21 94.03
  Z"
/>
<path fill="#fe8e3c" d="
  M 152.75 95.75
  L 152.75 110.25
  A 1.00 1.00 0.0 0 1 151.75 111.25
  L 147.75 111.25
  A 1.00 1.00 0.0 0 1 146.75 110.25
  L 146.75 69.87
  A 1.01 1.00 -2.2 0 1 147.68 68.87
  Q 159.30 68.00 166.73 69.71
  C 171.45 70.79 174.58 75.50 174.99 80.29
  Q 175.70 88.45 168.53 93.26
  A 1.00 1.00 0.0 0 0 168.21 94.57
  L 176.45 109.78
  A 1.00 0.99 -14.2 0 1 175.57 111.25
  L 170.78 111.25
  A 1.01 0.99 76.3 0 1 169.89 110.70
  L 162.05 95.29
  A 1.00 1.00 0.0 0 0 161.16 94.75
  L 153.75 94.75
  A 1.00 1.00 0.0 0 0 152.75 95.75
  Z
  M 166.41 75.67
  Q 159.98 73.13 153.59 74.16
  A 1.00 0.99 85.7 0 0 152.75 75.15
  L 152.75 88.49
  A 1.01 1.00 2.2 0 0 153.68 89.49
  Q 161.31 90.04 164.50 88.77
  C 169.84 86.64 169.97 79.86 166.81 75.97
  Q 166.65 75.77 166.41 75.67
  Z"
/>
<path fill="#fe8e3c" d="
  M 191.00 74.00
  L 179.75 74.00
  A 0.50 0.50 0.0 0 1 179.25 73.50
  L 179.25 69.25
  A 0.50 0.50 0.0 0 1 179.75 68.75
  L 209.25 68.75
  A 0.50 0.50 0.0 0 1 209.75 69.25
  L 209.75 73.50
  A 0.50 0.50 0.0 0 1 209.25 74.00
  L 197.75 74.00
  A 0.50 0.50 0.0 0 0 197.25 74.50
  L 197.25 110.79
  A 0.50 0.50 0.0 0 1 196.73 111.29
  L 191.98 111.15
  A 0.50 0.50 0.0 0 1 191.50 110.65
  L 191.50 74.50
  A 0.50 0.50 0.0 0 0 191.00 74.00
  Z"
/>
<path fill="#e9a14b" d="
  M 255.56 72.19
  C 268.51 79.89 267.33 102.28 254.16 108.70
  Q 250.38 110.55 243.54 111.05
  Q 236.26 111.58 228.94 111.13
  A 1.00 1.00 0.0 0 1 228.00 110.13
  L 228.00 69.86
  A 1.00 1.00 0.0 0 1 228.96 68.86
  Q 233.52 68.68 237.98 68.73
  C 245.38 68.82 249.99 68.87 255.56 72.19
  Z
  M 247.70 105.42
  C 262.17 102.02 262.23 77.03 247.45 74.67
  Q 241.21 73.67 234.68 74.10
  A 1.00 0.99 88.2 0 0 233.75 75.10
  L 233.75 104.91
  A 0.99 0.99 0.0 0 0 234.68 105.90
  Q 243.01 106.52 247.70 105.42
  Z"
/>
<path fill="#e9a14b" d="
  M 283.30 68.75
  L 288.38 68.76
  A 0.61 0.61 0.0 0 1 288.95 69.16
  L 303.71 110.43
  A 0.61 0.61 0.0 0 1 303.13 111.25
  L 298.43 111.25
  A 0.61 0.61 0.0 0 1 297.85 110.84
  L 294.20 100.16
  A 0.61 0.61 0.0 0 0 293.62 99.75
  L 278.01 99.75
  A 0.61 0.61 0.0 0 0 277.43 100.16
  L 273.83 110.84
  A 0.61 0.61 0.0 0 1 273.25 111.25
  L 268.51 111.25
  A 0.61 0.61 0.0 0 1 267.93 110.43
  L 282.72 69.15
  A 0.61 0.61 0.0 0 1 283.30 68.75
  Z
  M 284.88 79.67
  L 280.09 93.16
  A 1.01 1.01 0.0 0 0 281.04 94.50
  L 290.65 94.50
  A 1.00 1.00 0.0 0 0 291.59 93.16
  L 286.77 79.67
  Q 285.82 77.03 284.88 79.67
  Z"
/>
<path fill="#e9a14b" d="
  M 320.71 85.88
  A 1.00 1.00 0.0 0 0 322.41 85.88
  Q 326.73 78.86 331.00 71.73
  Q 332.40 69.40 334.09 68.91
  Q 335.76 68.42 337.74 68.79
  A 1.00 1.00 0.0 0 1 338.40 70.30
  L 324.65 92.45
  A 1.02 0.97 62.1 0 0 324.50 92.98
  L 324.50 110.25
  A 1.00 1.00 0.0 0 1 323.50 111.25
  L 319.75 111.25
  A 1.00 1.00 0.0 0 1 318.75 110.25
  L 318.75 93.16
  A 1.07 0.99 31.4 0 0 318.60 92.63
  L 304.71 70.28
  Q 303.76 68.75 305.56 68.75
  L 309.61 68.75
  A 1.00 0.99 -15.6 0 1 310.46 69.22
  L 320.71 85.88
  Z"
/>
<path fill="#fe8e3c" d="
  M 384.39 80.38
  Q 382.78 79.53 384.36 78.63
  L 397.15 71.34
  A 1.01 1.00 -21.8 0 1 398.62 71.97
  Q 399.03 73.63 398.58 74.86
  C 397.86 76.82 390.26 80.62 388.20 81.86
  A 1.00 0.98 43.4 0 1 387.22 81.88
  L 384.39 80.38
  Z"
/>
<path fill="#fe8e3c" d="
  M 414.70 78.63
  Q 416.23 79.47 414.73 80.36
  L 412.15 81.90
  A 1.02 1.01 44.5 0 1 411.14 81.90
  Q 406.43 79.21 401.77 76.57
  C 400.26 75.71 399.90 74.64 400.28 73.00
  Q 400.33 72.75 400.26 72.50
  C 399.84 71.00 400.92 70.65 402.01 71.31
  Q 408.10 74.98 414.70 78.63
  Z"
/>
<path fill="#ffffff" d="
  M 166.41 75.67
  Q 166.65 75.77 166.81 75.97
  C 169.97 79.86 169.84 86.64 164.50 88.77
  Q 161.31 90.04 153.68 89.49
  A 1.01 1.00 2.2 0 1 152.75 88.49
  L 152.75 75.15
  A 1.00 0.99 85.7 0 1 153.59 74.16
  Q 159.98 73.13 166.41 75.67
  Z"
/>
<path fill="#ffffff" d="
  M 247.45 74.67
  C 262.23 77.03 262.17 102.02 247.70 105.42
  Q 243.01 106.52 234.68 105.90
  A 0.99 0.99 0.0 0 1 233.75 104.91
  L 233.75 75.10
  A 1.00 0.99 88.2 0 1 234.68 74.10
  Q 241.21 73.67 247.45 74.67
  Z"
/>
<path fill="#ffffff" d="
  M 117.21 94.03
  L 122.97 77.75
  A 0.34 0.34 0.0 0 1 123.61 77.75
  L 129.25 94.07
  A 0.34 0.34 0.0 0 1 128.93 94.52
  L 117.53 94.48
  A 0.34 0.34 0.0 0 1 117.21 94.03
  Z"
/>
<path fill="#ffffff" d="
  M 284.88 79.67
  Q 285.82 77.03 286.77 79.67
  L 291.59 93.16
  A 1.00 1.00 0.0 0 1 290.65 94.50
  L 281.04 94.50
  A 1.01 1.01 0.0 0 1 280.09 93.16
  L 284.88 79.67
  Z"
/>
<path fill="#fe8e3c" d="
  M 410.27 96.73
  L 400.02 102.76
  A 0.97 0.97 0.0 0 1 399.04 102.76
  L 388.73 96.76
  A 0.97 0.97 0.0 0 1 388.25 95.92
  L 388.25 84.06
  A 0.97 0.97 0.0 0 1 388.74 83.22
  L 399.17 77.27
  A 0.97 0.97 0.0 0 1 400.14 77.28
  L 410.27 83.26
  A 0.97 0.97 0.0 0 1 410.75 84.09
  L 410.75 95.90
  A 0.97 0.97 0.0 0 1 410.27 96.73
  Z"
/>
<path fill="#fe8e3c" d="
  M 382.99 81.34
  L 386.49 83.27
  A 0.51 0.51 0.0 0 1 386.75 83.72
  L 386.75 96.19
  A 0.51 0.51 0.0 0 1 386.49 96.64
  L 383.22 98.43
  A 0.51 0.51 0.0 0 1 382.47 97.99
  L 382.23 81.79
  A 0.51 0.51 0.0 0 1 382.99 81.34
  Z"
/>
<path fill="#fe8e3c" d="
  M 412.25 96.12
  L 412.25 83.75
  A 0.59 0.59 0.0 0 1 412.57 83.23
  L 416.14 81.41
  A 0.59 0.59 0.0 0 1 417.00 81.94
  L 417.00 98.20
  A 0.59 0.59 0.0 0 1 416.11 98.71
  L 412.54 96.63
  A 0.59 0.59 0.0 0 1 412.25 96.12
  Z"
/>
<path fill="#fe8e3c" d="
  M 415.35 101.01
  L 401.09 109.10
  A 0.57 0.57 0.0 0 1 400.24 108.60
  L 400.25 104.73
  A 0.57 0.57 0.0 0 1 400.53 104.24
  L 411.14 98.02
  A 0.57 0.57 0.0 0 1 411.70 98.02
  L 415.35 100.02
  A 0.57 0.57 0.0 0 1 415.35 101.01
  Z"
/>
<path fill="#fe8e3c" d="
  M 397.58 103.65
  Q 399.39 104.73 398.72 106.97
  A 1.01 0.93 -46.4 0 0 398.71 107.50
  Q 399.32 109.89 397.23 108.79
  Q 395.05 107.65 384.42 101.32
  Q 382.85 100.38 384.48 99.56
  L 387.12 98.24
  A 1.02 1.01 45.3 0 1 388.04 98.25
  Q 392.89 100.85 397.58 103.65
  Z"
/>
</svg>
